<svg width="80" height="80" viewBox="0 0 80 80" fill="none" xmlns="http://www.w3.org/2000/svg">
<path d="M41 38.5C41 36.5109 41.7902 34.6032 43.1967 33.1967C44.6032 31.7902 46.5109 31 48.5 31C50.4891 31 52.3968 31.7902 53.8033 33.1967C55.2098 34.6032 56 36.5109 56 38.5C56 40.4891 55.2098 42.3968 53.8033 43.8033C52.3968 45.2098 50.4891 46 48.5 46C46.5109 46 44.6032 45.2098 43.1967 43.8033C41.7902 42.3968 41 40.4891 41 38.5V38.5Z" fill="#1ABCFE"/>
<path d="M26 53.5C26 51.5109 26.7902 49.6032 28.1967 48.1967C29.6032 46.7902 31.5109 46 33.5 46H41V53.5C41 55.4891 40.2098 57.3968 38.8033 58.8033C37.3968 60.2098 35.4891 61 33.5 61C31.5109 61 29.6032 60.2098 28.1967 58.8033C26.7902 57.3968 26 55.4891 26 53.5V53.5Z" fill="#0ACF83"/>
<path d="M41 16V31H48.5C50.4891 31 52.3968 30.2098 53.8033 28.8033C55.2098 27.3968 56 25.4891 56 23.5C56 21.5109 55.2098 19.6032 53.8033 18.1967C52.3968 16.7902 50.4891 16 48.5 16H41Z" fill="#FF7262"/>
<path d="M26 23.5C26 25.4891 26.7902 27.3968 28.1967 28.8033C29.6032 30.2098 31.5109 31 33.5 31H41V16H33.5C31.5109 16 29.6032 16.7902 28.1967 18.1967C26.7902 19.6032 26 21.5109 26 23.5V23.5Z" fill="#F24E1E"/>
<path d="M26 38.5C26 40.4891 26.7902 42.3968 28.1967 43.8033C29.6032 45.2098 31.5109 46 33.5 46H41V31H33.5C31.5109 31 29.6032 31.7902 28.1967 33.1967C26.7902 34.6032 26 36.5109 26 38.5V38.5Z" fill="#A259FF"/>
</svg>
