<svg width="80" height="80" viewBox="0 0 80 80" fill="none" xmlns="http://www.w3.org/2000/svg">
<path fill-rule="evenodd" clip-rule="evenodd" d="M36.4693 34.1782C37.7588 34.1782 37.0553 37.893 36.251 42.1402C35.5887 45.6373 34.858 49.4953 35.1154 51.9375C35.6855 57.3457 41.5996 55.8109 41.1721 52.5953C40.4595 47.3333 44.0935 30.524 47.6563 30.524C48.9455 30.524 48.2752 33.2854 47.3869 36.945C46.4587 40.7689 45.2923 45.5737 45.8749 49.2334C46.5875 53.9839 52.9291 52.5222 52.2166 49.5258C51.1327 44.2142 52.7176 38.9954 54.1553 34.2615C55.2695 30.5929 56.2952 27.2156 55.9218 24.3119C55.4943 21.5348 53.998 20 52.1453 20C46.1599 20 41.3146 32.205 41.3146 32.205C41.3146 32.205 41.8846 25.262 37.0393 24.9697C30.0563 24.6043 22.8596 42.3636 23.0021 58.442C23.1446 63.5578 29.4863 62.7539 29.0587 58.5881C28.7025 51.4259 32.8353 34.1782 36.4693 34.1782Z" fill="#1FB6FF"/>
</svg>
