<svg width="80" height="80" viewBox="0 0 80 80" fill="none" xmlns="http://www.w3.org/2000/svg">
<path fill-rule="evenodd" clip-rule="evenodd" d="M36.1608 29.6587C36.1608 29.238 36.3287 28.8571 36.6016 28.5811C36.8744 28.3064 37.2509 28.1352 37.6667 28.1352H22.5059C21.6742 28.1352 21 28.8173 21 29.6587V54.1939C21 55.5502 22.6213 56.231 23.5697 55.2702L36.1608 42.5328V29.6587Z" fill="#FD0178"/>
<path fill-rule="evenodd" clip-rule="evenodd" d="M61.502 28.1352H46.452C47.284 28.1352 47.857 28.7762 47.939 29.4915C47.9885 29.9201 47.8622 30.3766 47.5093 30.7362L41.7213 36.6337L35.9333 42.5326V54.1935C35.9333 55.5498 37.5441 56.2306 38.4855 55.2711L62.5593 30.7362C63.5008 29.7768 62.8341 28.1352 61.502 28.1352Z" fill="#0000FF"/>
<path fill-rule="evenodd" clip-rule="evenodd" d="M35.9333 42.4685L41.8 36.5189L35.9333 42.4685Z" fill="#0000FF"/>
<path fill-rule="evenodd" clip-rule="evenodd" d="M37.5334 28C37.0649 28 36.6408 28.1557 36.3334 28.4057C36.6408 28.1557 37.0649 28 37.5334 28Z" fill="#0000FF"/>
<path fill-rule="evenodd" clip-rule="evenodd" d="M41.8 36.3836L47.624 30.5775C47.979 30.2235 48.1061 29.7755 48.0563 29.3522C48.1061 29.7755 47.979 30.2235 47.624 30.5775L41.8 36.3836Z" fill="#0000FF"/>
<path fill-rule="evenodd" clip-rule="evenodd" d="M47.9333 29.3522C47.8524 28.6391 47.2873 28 46.4667 28C47.2873 28 47.8524 28.6391 47.9333 29.3522Z" fill="#0000FF"/>
<path fill-rule="evenodd" clip-rule="evenodd" d="M37.4428 28.1352C37.026 28.1352 35.9333 28.2517 35.9333 28.1352V42.7389L41.7779 36.7555L47.6224 30.7735C47.9787 30.4087 48.1062 29.9457 48.0563 29.5109C47.9734 28.7854 47.3949 28.1352 46.5547 28.1352H37.4428Z" fill="#FC41FC"/>
</svg>
