<svg width="80" height="80" viewBox="0 0 80 80" fill="none" xmlns="http://www.w3.org/2000/svg">
<circle cx="40" cy="40" r="29" fill="#4353FF"/>
<path d="M49.2603 35.7366C49.2603 35.7366 46.5797 44.1872 46.3624 44.8847C46.2827 44.1672 44.3175 29 44.3175 29C39.7514 29 37.3019 32.2686 36.0204 35.7166C36.0204 35.7166 32.7657 44.1872 32.4867 44.9047C32.4667 44.247 31.9904 35.8163 31.9904 35.8163C31.7213 31.591 27.8628 29.0199 24.7456 29.0199L28.5165 52C33.2999 51.9801 35.8809 48.7314 37.2302 45.2834C37.2302 45.2834 40.1082 37.8094 40.2198 37.4705C40.2477 37.7894 42.2846 52 42.2846 52C47.0879 52 49.6689 48.9506 51.0541 45.6222L57.7827 29.0199C53.0472 29.0199 50.5499 32.2686 49.2603 35.7366Z" fill="white"/>
</svg>
