<svg width="80" height="80" viewBox="0 0 80 80" fill="none" xmlns="http://www.w3.org/2000/svg">
<path d="M18.8802 20.8803H60.2478V61.1196H18.8802V20.8803Z" fill="url(#paint0_radial)"/>
<path d="M18.8803 20.8803H60.2478V61.1196H18.8803V20.8803ZM17 63H62.1281V19H17V63ZM47.4239 37.0512C45.9384 37.0512 45.4308 37.8034 45.4308 38.4239C45.4308 39.1008 45.7692 39.5709 47.7624 40.6051C50.7145 42.0342 51.6359 43.4068 51.6359 45.4188C51.6359 48.4273 49.3419 50.0444 46.2393 50.0444C44.6034 50.0444 43.1931 49.7059 42.3846 49.2359C42.253 49.1795 42.2342 49.0855 42.2342 48.935V46.1709C42.2342 45.9829 42.3282 45.9264 42.4598 46.0205C43.6445 46.7915 44.9983 47.1299 46.2393 47.1299C47.7248 47.1299 48.3453 46.5094 48.3453 45.6632C48.3453 44.9863 47.9128 44.3846 46.0136 43.4068C43.3435 42.1282 42.2342 40.8308 42.2342 38.6684C42.2342 36.2427 44.1334 34.2307 47.4239 34.2307C49.041 34.2307 50.1692 34.4752 50.7897 34.7572C50.9401 34.8512 50.9777 35.0017 50.9777 35.1333V37.7093C50.9777 37.8597 50.8837 37.9538 50.6956 37.8973C49.8683 37.3709 48.6461 37.0512 47.4239 37.0512V37.0512ZM31.2529 39.2889C31.6854 39.3265 32.0239 39.3265 32.776 39.3265C34.9761 39.3265 37.0444 38.5555 37.0444 35.5658C37.0444 33.1778 35.5589 31.9743 33.0581 31.9743C32.306 31.9743 31.5914 32.0119 31.2529 32.0307V39.2889ZM27.906 29.3042C27.906 29.1726 28.1693 29.0785 28.3196 29.0785C29.5231 29.0221 31.3094 28.9845 33.1709 28.9845C38.3795 28.9845 40.4102 31.8427 40.4102 35.4906C40.4102 40.2666 36.9504 42.3162 32.7008 42.3162C31.9863 42.3162 31.7419 42.2786 31.2341 42.2786V49.4991C31.2341 49.6495 31.1777 49.7247 31.0085 49.7247H28.1316C27.9812 49.7247 27.9059 49.6683 27.9059 49.4991V29.3042H27.906Z" fill="#31C5F0"/>
<defs>
<radialGradient id="paint0_radial" cx="0" cy="0" r="1" gradientUnits="userSpaceOnUse" gradientTransform="translate(32.5047 29.898) scale(31.4393 30.4389)">
<stop stop-color="#34364E" stop-opacity="0.98"/>
<stop offset="1" stop-color="#0C0824"/>
</radialGradient>
</defs>
</svg>
