<svg width="80" height="80" viewBox="0 0 80 80" fill="none" xmlns="http://www.w3.org/2000/svg">
<path d="M18.9127 17.9127H60.9915V58.8438H18.9127V17.9127Z" fill="url(#paint0_radial)"/>
<path d="M18.9126 17.9126H60.9914V58.8438H18.9126V17.9126ZM17 60.7565H62.9041V16H17V60.7565ZM47.0671 31.9517C47.0671 31.7987 47.1245 31.7221 47.2967 31.7221H50.2996C50.4525 31.7221 50.529 31.7795 50.529 31.9517V47.0427C50.529 47.1956 50.4908 47.2722 50.2996 47.2722H47.3349C47.1437 47.2722 47.0862 47.1766 47.0862 47.0236V31.9517H47.0671ZM46.8568 27.6099C46.8568 26.3858 47.7174 25.659 48.8077 25.659C49.9745 25.659 50.7586 26.4432 50.7586 27.6099C50.7586 28.8722 49.9362 29.5608 48.7695 29.5608C47.66 29.5609 46.8568 28.8722 46.8568 27.6099ZM38.2497 38.2444C37.7143 36.1213 36.4519 31.4926 35.9737 29.2548H35.9354C35.5337 31.4926 34.5201 35.2797 33.7168 38.2444H38.2497V38.2444ZM32.9325 41.3429L31.4215 47.0809C31.3833 47.2338 31.3259 47.2721 31.1347 47.2721H28.323C28.1318 47.2721 28.0935 47.2147 28.1318 46.9852L33.5637 27.9732C33.6593 27.629 33.7167 27.3229 33.755 26.3858C33.755 26.2519 33.8123 26.1945 33.908 26.1945H37.9246C38.0584 26.1945 38.1158 26.2328 38.1541 26.3858L44.2364 47.0235C44.2746 47.1764 44.2364 47.2721 44.0834 47.2721H40.9083C40.7553 47.2721 40.6596 47.2338 40.6214 47.1001L39.053 41.3429H32.9325V41.3429Z" fill="#FF7F18"/>
<defs>
<radialGradient id="paint0_radial" cx="0" cy="0" r="1" gradientUnits="userSpaceOnUse" gradientTransform="translate(32.7714 27.0854) scale(31.9798 30.9623)">
<stop stop-color="#423325" stop-opacity="0.98"/>
<stop offset="1" stop-color="#1C0A00"/>
</radialGradient>
</defs>
</svg>
