<svg width="80" height="80" viewBox="0 0 80 80" fill="none" xmlns="http://www.w3.org/2000/svg">
<path fill-rule="evenodd" clip-rule="evenodd" d="M27.4727 20.4186L40.9999 19L54.5272 20.4186L64.9999 34.3641L40.9999 62.0868L17 34.3641L27.4727 20.4186V20.4186Z" fill="#FDB300"/>
<path fill-rule="evenodd" clip-rule="evenodd" d="M26.7211 34.3641L40.9998 62.0869L17 34.3641H26.7211ZM55.2789 34.3641L41.0002 62.0869L65 34.3641" fill="#EA6C00"/>
<path fill-rule="evenodd" clip-rule="evenodd" d="M26.7211 34.3641H55.2786L40.9998 62.0869" fill="#FDAD00"/>
<path fill-rule="evenodd" clip-rule="evenodd" d="M40.9998 19L27.4726 20.4184L26.7211 34.3639L40.9998 19ZM41.0001 19L54.5273 20.4184L55.2788 34.3639" fill="#FDD231"/>
<path fill-rule="evenodd" clip-rule="evenodd" d="M65 34.3639L54.5274 20.4184L55.2789 34.3639H65ZM17 34.3639L27.4726 20.4184L26.7211 34.3639" fill="#FDAD00"/>
<path fill-rule="evenodd" clip-rule="evenodd" d="M40.9998 19L26.7211 34.3639H55.2786" fill="#FEEEB7"/>
</svg>
