<svg width="80" height="80" viewBox="0 0 80 80" fill="none" xmlns="http://www.w3.org/2000/svg">
<path d="M18.8749 20.755H60.1248V60.88H18.8749V20.755Z" fill="black"/>
<path d="M17 18.8804V62.7554H62V18.8804H17ZM18.875 20.7554H60.125V60.8804H18.875V20.7554Z" fill="#FF2BC2"/>
<path d="M49.6813 37.3113C49.4 37.18 49.0438 37.1238 48.5938 37.1238C46.2313 37.1238 44.6563 38.9425 44.6563 41.9613C44.6563 45.4113 46.2688 46.7987 48.3688 46.7987C48.8188 46.7987 49.3063 46.7425 49.6625 46.5925V37.3113H49.6813ZM41.2813 42.1113C41.2813 37.7425 44.0938 34.33 48.7063 34.33C49.1 34.33 49.3063 34.33 49.6813 34.3675V29.4925C49.6813 29.38 49.775 29.305 49.8688 29.305H52.8875C53.0375 29.305 53.075 29.3613 53.075 29.455V46.5925C53.075 47.0987 53.075 47.7362 53.1688 48.43C53.1688 48.5612 53.1688 48.58 53.0563 48.6362C51.4813 49.3862 49.8313 49.7237 48.2563 49.7237C44.1875 49.7237 41.2813 47.2112 41.2813 42.1113V42.1113ZM34.8875 39.0738L40.1375 49.255C40.2313 49.405 40.175 49.555 40.025 49.555H36.7625C36.5563 49.555 36.4625 49.4987 36.3688 49.3112C35.1688 46.8362 33.95 44.2675 32.6938 41.605H32.6563C31.5313 44.1175 30.2938 46.855 29.0938 49.33C29 49.48 28.9063 49.5362 28.7563 49.5362H25.6437C25.4562 49.5362 25.4375 49.3862 25.5312 49.2737L30.6688 39.3925L25.7 29.5675C25.5875 29.4175 25.7 29.2863 25.8312 29.2863H29.0563C29.2438 29.2863 29.3375 29.3238 29.3938 29.4925C30.575 31.9863 31.775 34.4425 32.9 36.955H32.9375C34.025 34.48 35.225 31.9863 36.3688 29.53C36.4625 29.38 36.5188 29.2863 36.7063 29.2863H39.725C39.875 29.2863 39.9313 29.3988 39.8375 29.5675L34.8875 39.0738V39.0738Z" fill="#FF2BC2"/>
</svg>
