<svg width="80" height="80" viewBox="0 0 80 80" fill="none" xmlns="http://www.w3.org/2000/svg">
<path d="M40.41 15C20.08 15 15 20.08 15 40.41C15 60.74 20.08 65.82 40.41 65.82C60.74 65.82 65.82 60.74 65.82 40.41C65.82 20.08 60.74 15 40.41 15ZM36.24 54.31C34.3169 54.3041 32.4386 53.7284 30.8425 52.6556C29.2464 51.5829 28.0039 50.0612 27.2721 48.2828C26.5402 46.5043 26.3518 44.5489 26.7306 42.6634C27.1094 40.778 28.0385 39.0471 29.4004 37.6893C30.7624 36.3316 32.4962 35.4078 34.3828 35.0348C36.2694 34.6618 38.2242 34.8562 40.0004 35.5936C41.7766 36.3309 43.2944 37.578 44.3623 39.1774C45.4301 40.7769 46 42.6569 46 44.58C45.9947 47.1641 44.9638 49.6405 43.1337 51.4649C41.3036 53.2893 38.8241 54.3127 36.24 54.31ZM53.91 53.91H49.14V31.67H26.91V26.91H53.91V53.91Z" fill="black"/>
<path d="M36.24 49.54C38.9794 49.54 41.2 47.3193 41.2 44.58C41.2 41.8407 38.9794 39.62 36.24 39.62C33.5007 39.62 31.28 41.8407 31.28 44.58C31.28 47.3193 33.5007 49.54 36.24 49.54Z" fill="black"/>
</svg>
