<svg width="80" height="80" viewBox="0 0 80 80" fill="none" xmlns="http://www.w3.org/2000/svg">
<path d="M60.15 36.3C60.15 30.7334 58.1833 25.9834 54.25 22.05C50.3166 18.1167 45.5666 16.15 40 16.15C34.4333 16.15 29.6833 18.1167 25.75 22.05C21.8166 25.9834 19.85 30.7334 19.85 36.3H60.15Z" fill="#CAE2E2"/>
<path d="M54.15 50.65L54.25 50.55C58.1166 46.7167 60.0833 42.0833 60.15 36.65V36.3H19.85V36.65C19.9166 42.0833 21.8833 46.7167 25.75 50.55L25.85 50.65C29.7833 54.5167 34.5 56.45 40 56.45C45.5 56.45 50.2166 54.5167 54.15 50.65Z" fill="#232D41"/>
<path d="M66.65 36.3H60.15V36.65C60.0833 42.0833 58.1167 46.7167 54.25 50.55L54.15 50.65C50.2167 54.5167 45.5 56.45 40 56.45C34.5 56.45 29.7833 54.5167 25.85 50.65L25.75 50.55C21.8833 46.7167 19.9167 42.0833 19.85 36.65V36.3H13.4C13.1333 36.3 13 36.4167 13 36.65C13.1 43.9833 15.7833 50.25 21.05 55.45C26.3167 60.65 32.6333 63.25 40 63.25C47.3667 63.25 53.6833 60.65 58.95 55.45C64.2167 50.25 66.9 43.9833 67 36.65C67 36.4167 66.8833 36.3 66.65 36.3Z" fill="#FF4542"/>
</svg>
