<svg width="80" height="80" viewBox="0 0 80 80" fill="none" xmlns="http://www.w3.org/2000/svg">
<g opacity="0.783">
<path opacity="0.783" d="M36.3457 18.9791L19.0615 36.6808C12.5174 43.2229 23.3005 42.6792 27.2028 45.1519C29.0072 46.3257 21.4141 47.8361 22.9638 49.3896C24.4747 50.9431 32.0678 52.3672 33.5786 53.8776C35.0895 55.4311 30.5138 57.0667 32.0246 58.6159C33.4923 60.1694 37.0191 58.6979 37.645 62.2235C38.1069 64.8257 44.1071 63.5225 46.7921 61.3C48.4713 59.876 43.8956 59.876 45.4064 58.3224C49.1836 54.5076 52.5377 56.6006 53.9233 53.0792C54.6788 51.1934 48.2166 49.8513 49.939 48.6344C54.0528 45.7388 69.157 44.2716 62.1898 37.3109L44.2755 18.9791C42.0524 16.8819 38.4004 16.8819 36.3457 18.9791ZM56.1896 53.0792C56.1896 53.9596 63.0273 54.4645 62.6517 52.8678C62.1078 50.1879 56.945 50.3951 56.1896 53.0792ZM27.0302 57.7355C28.5842 59.0776 30.9325 57.4421 31.6879 55.5563C30.1771 53.5841 24.5999 55.6814 27.0302 57.7355V57.7355ZM55.3522 54.9262C53.4226 56.6869 55.6889 58.5339 57.5753 57.3169C58.0803 56.9803 57.5321 55.3448 55.3522 54.9262Z" fill="black"/>
<path opacity="0.576" d="M36.3457 19.3891L19.0615 37.0908C12.5174 43.6329 23.3005 43.0892 27.2028 45.5619C29.0072 46.7357 21.4141 48.246 22.9638 49.7996C24.4747 51.3531 32.0678 52.7772 33.5786 54.2876C35.0895 55.8411 30.5138 57.4766 32.0246 59.0258C33.4923 60.5794 37.0191 59.1078 37.645 62.6335C38.1069 65.2357 44.1071 63.9324 46.7921 61.71C48.4713 60.2859 43.8956 60.2859 45.4064 58.7324C49.1836 54.9176 52.5377 57.0106 53.9233 53.4892C54.6788 51.6034 48.2166 50.2613 49.939 49.0444C54.0528 46.1488 69.157 44.6815 62.1898 37.7208L44.2755 19.3891C42.0524 17.2918 38.4004 17.2918 36.3457 19.3891ZM56.1896 53.4892C56.1896 54.3696 63.0273 54.8745 62.6517 53.2778C62.1078 50.5979 56.945 50.8051 56.1896 53.4892ZM27.0302 58.1455C28.5842 59.4876 30.9325 57.8521 31.6879 55.9662C30.1771 53.9941 24.5999 56.0914 27.0302 58.1455V58.1455ZM55.3522 55.3362C53.4226 57.0969 55.6889 58.9439 57.5753 57.7269C58.0803 57.3903 57.5321 55.7548 55.3522 55.3362Z" fill="black"/>
</g>
<path d="M36.3457 18.5735L19.0615 36.2709C12.5174 42.813 23.3005 42.2692 27.2028 44.7419C29.0072 45.9157 21.4141 47.4261 22.9638 48.9796C24.4747 50.5332 32.0678 51.9572 33.5786 53.4676C35.0895 55.0212 30.5138 56.6567 32.0246 58.2059C33.4923 59.7594 37.0191 58.2879 37.645 61.8136C38.1069 64.4157 44.1071 63.1125 46.7921 60.8901C48.4713 59.466 43.8956 59.466 45.4064 57.9125C49.1836 54.0977 52.5377 56.1906 53.9233 52.6693C54.6788 50.7835 48.2166 49.4414 49.939 48.2244C54.0528 45.3288 69.157 43.8616 62.1898 36.9009L44.2755 18.5692C42.0524 16.4762 38.4004 16.4762 36.3457 18.5735V18.5735ZM56.1896 52.6736C56.1896 53.5539 63.0273 54.0588 62.6517 52.4621C62.1078 49.778 56.945 49.9894 56.1896 52.6736ZM27.0302 57.3299C28.5842 58.672 30.9325 57.0364 31.6879 55.1506C30.1771 53.1742 24.5999 55.2715 27.0302 57.3299V57.3299ZM55.3522 54.5163C53.4226 56.2769 55.6889 58.1239 57.5753 56.907C58.0803 56.5747 57.5321 54.9349 55.3522 54.5163Z" fill="black"/>
<path d="M36.3457 18.5735L19.0615 36.2709C12.5174 42.813 23.3005 42.2692 27.2028 44.7419C29.0072 45.9157 21.4141 47.4261 22.9638 48.9796C24.4747 50.5332 32.0678 51.9572 33.5786 53.4676C35.0895 55.0212 30.5138 56.6567 32.0246 58.2059C33.4923 59.7594 37.0191 58.2879 37.645 61.8136C38.1069 64.4157 44.1071 63.1125 46.7921 60.8901C48.4713 59.466 43.8956 59.466 45.4064 57.9125C49.1836 54.0977 52.5377 56.1906 53.9233 52.6693C54.6788 50.7835 48.2166 49.4414 49.939 48.2244C54.0528 45.3288 69.157 43.8616 62.1898 36.9009L44.2755 18.5692C42.0524 16.4762 38.4004 16.4762 36.3457 18.5735V18.5735ZM56.1896 52.6736C56.1896 53.5539 63.0273 54.0588 62.6517 52.4621C62.1078 49.778 56.945 49.9894 56.1896 52.6736ZM27.0302 57.3299C28.5842 58.672 30.9325 57.0364 31.6879 55.1506C30.1771 53.1742 24.5999 55.2715 27.0302 57.3299V57.3299ZM55.3522 54.5163C53.4226 56.2769 55.6889 58.1239 57.5753 56.907C58.0803 56.5747 57.5321 54.9349 55.3522 54.5163Z" fill="black"/>
<path opacity="0.67" d="M36.3845 18.7763L19.2601 36.3097C12.7807 42.7914 23.4602 42.2476 27.3237 44.6988C29.1108 45.8639 21.5868 47.3571 23.1279 48.8933C24.6258 50.4296 32.1455 51.845 33.6434 53.3382C35.1413 54.8744 30.6087 56.497 32.1066 58.0333C33.5614 59.5696 37.0536 58.1153 37.6752 61.6064C38.1328 64.1827 44.0769 62.8924 46.736 60.6916C48.3979 59.2804 43.8697 59.2804 45.3633 57.7398C49.1016 53.9596 52.4297 56.0353 53.7981 52.5485C54.5449 50.6799 48.1476 49.3508 49.8483 48.1425C53.9233 45.277 68.8851 43.8228 61.9826 36.9268L44.2409 18.7763C42.0351 16.6963 38.422 16.6963 36.3845 18.7763V18.7763ZM32.2707 45.6568C32.6462 45.6568 45.0697 47.3182 40.2911 48.6085C38.4608 49.1048 30.0691 45.6568 32.2707 45.6568ZM56.0428 52.5528C56.0428 53.4245 62.8158 53.9251 62.4445 52.3456C61.9049 49.6874 56.7896 49.8945 56.0428 52.5528ZM27.1597 57.1659C28.6964 58.495 31.0231 56.8768 31.7742 55.0039C30.2763 53.0533 24.7466 55.129 27.1597 57.1659V57.1659ZM55.2097 54.3825C53.2974 56.1259 55.5421 57.9556 57.4112 56.7516C57.912 56.415 57.3724 54.7968 55.2097 54.3825Z" fill="url(#paint0_linear)"/>
<path opacity="0.67" d="M20.5983 37.2547C15.8974 41.911 24.1552 40.5992 30.5051 43.0978L43.6323 20.0234C41.6423 17.9909 39.0997 18.1592 37.2824 20.0234L20.5983 37.2547Z" fill="url(#paint1_linear)"/>
<path d="M43.2265 19.8293L50.0642 26.79C50.6945 27.42 50.6945 28.7189 50.3146 29.0987L46.9173 26.3325L46.2439 30.4019L43.4337 28.8916L38.8623 31.7872L37.3515 25.7068L34.9212 30.9888L28.8389 30.9457C27.6648 30.9457 27.8331 29.7287 29.0504 28.5118C31.4419 25.8708 36.0996 21.3828 37.5673 19.8293C39.0739 18.2757 41.7157 18.3189 43.2265 19.8293V19.8293Z" fill="url(#paint2_linear)"/>
<path opacity="0.217" d="M33.8419 52.7211C33.8419 52.7211 34.5844 53.856 34.5067 54.3868C34.3599 55.4311 32.1022 55.9533 32.603 56.8854C33.0951 57.8046 34.8736 57.2824 36.3672 58.2448C37.8521 59.2028 37.455 61.1533 38.5342 61.6453C40.6407 62.6033 46.1747 59.9925 45.8942 60.0486C45.6179 60.1047 40.4335 61.1792 39.268 60.2385C37.9384 59.1639 37.5543 58.4087 36.5744 57.7744C35.6549 57.1789 34.3642 56.9329 34.062 56.4452C33.7599 55.9576 34.6664 55.3276 34.7268 54.3868C34.7657 53.8215 33.8419 52.7211 33.8419 52.7211V52.7211Z" fill="black"/>
<path d="M33.8419 52.7211C33.8419 52.7211 34.5844 53.856 34.5067 54.3868C34.3599 55.4311 32.1022 55.9533 32.603 56.8854C33.0951 57.8046 34.8736 57.2824 36.3672 58.2448C37.8521 59.2028 37.455 61.1533 38.5342 61.6453C40.6407 62.6033 46.1747 59.9925 45.8942 60.0486C36.7082 60.0831 38.4219 57.7183 34.8779 56.1604C34.3642 55.936 34.6621 55.3232 34.7268 54.3825C34.7657 53.8215 33.8419 52.7211 33.8419 52.7211V52.7211Z" fill="url(#paint3_radial)"/>
<path opacity="0.453" d="M49.4512 47.8921C57.6961 44.8584 60.3466 44.4442 63.0618 41.7255C59.9149 44.3794 53.2629 45.8035 47.8411 48.1683L49.4512 47.8921V47.8921Z" fill="black"/>
<path d="M49.4512 47.4995C63.0316 42.6921 60.7351 42.718 63.0618 41.3371C58.7451 42.9899 50.6771 43.1668 47.8411 47.78L49.4512 47.4995V47.4995Z" fill="url(#paint4_radial)"/>
<path opacity="0.286" d="M61.3135 51.3488C61.3135 51.6466 60.5236 51.8882 59.548 51.8882C58.5724 51.8882 57.7825 51.6466 57.7825 51.3445C57.7825 51.0424 58.5767 50.8051 59.548 50.8051C60.5236 50.8051 61.3135 51.0467 61.3135 51.3488Z" fill="black"/>
<path d="M61.9222 51.9745C61.9222 52.6175 60.8603 53.1396 59.548 53.1396C58.2357 53.1396 57.1738 52.6175 57.1738 51.9745C57.1738 51.3315 58.2357 50.8093 59.548 50.8093C60.8603 50.8093 61.9222 51.3272 61.9222 51.9745Z" fill="url(#paint5_linear)"/>
<path d="M56.3148 52.6218C57.1523 53.3943 61.8143 53.7913 62.5784 52.4017C61.0805 53.459 57.7523 53.0879 56.3148 52.6218Z" fill="url(#paint6_radial)"/>
<path opacity="0.286" d="M56.3277 55.2067C56.5004 55.5433 56.3882 55.9447 56.0817 56.1C55.7752 56.2554 55.3867 56.1086 55.214 55.772C55.0414 55.4354 55.1536 55.0341 55.4601 54.8788C55.7709 54.7191 56.1594 54.8658 56.3277 55.2067Z" fill="url(#paint7_linear)"/>
<path d="M56.6602 55.3534C56.9149 55.8583 56.7595 56.4495 56.3105 56.6782C55.8616 56.9069 55.2875 56.6825 55.0328 56.1776C54.7781 55.6727 54.9335 55.0815 55.3824 54.8528C55.8314 54.6241 56.4055 54.8485 56.6602 55.3534Z" fill="url(#paint8_linear)"/>
<path d="M55.1709 56.7689C55.8443 57.2954 58.3782 57.3644 57.4156 55.8325C57.666 57.0321 55.935 56.9027 55.1709 56.7689Z" fill="url(#paint9_radial)"/>
<path d="M23.8962 48.8329C23.8962 48.6948 32.5297 51.461 34.006 52.9412C32.7887 51.7544 26.6374 49.0271 25.7006 48.9969C24.7639 48.971 24.0085 48.889 23.8962 48.8329V48.8329Z" fill="url(#paint10_radial)"/>
<path opacity="0.286" d="M30.38 54.7622C30.449 54.9694 29.8145 55.293 28.9555 55.4786C28.0964 55.6641 27.3496 55.6512 27.2762 55.4441C27.2029 55.2369 27.8417 54.9133 28.7008 54.7277C29.5598 54.5421 30.3109 54.5551 30.38 54.7622V54.7622Z" fill="url(#paint11_linear)"/>
<path d="M31.062 55.0815C31.2131 55.5303 30.4015 56.1 29.249 56.3503C28.0964 56.6006 27.0388 56.4452 26.8877 55.9964C26.7366 55.5476 27.5482 54.978 28.7007 54.7277C29.8533 54.4774 30.9109 54.6327 31.062 55.0815Z" fill="url(#paint12_linear)"/>
<g opacity="0.616">
<path opacity="0.616" d="M26.6589 56.1647C26.6589 56.1647 27.1251 57.4205 28.4072 57.4852C29.7065 57.55 31.1872 55.9274 31.308 55.3491C31.0879 55.8497 29.8447 57.3558 28.2389 57.3342C27.3323 57.3212 26.6589 56.1647 26.6589 56.1647V56.1647Z" fill="url(#paint13_radial)"/>
</g>
<path d="M40.2522 17.6155C38.9529 17.6155 37.6795 18.0859 36.7773 19.0051L19.4931 36.6981C17.9132 38.2776 17.5333 39.3133 17.6326 39.8958C17.6801 40.1893 17.8269 40.4439 18.1291 40.7071C18.4355 40.9747 18.8974 41.2336 19.4543 41.4666C20.568 41.9327 22.0616 42.3081 23.5336 42.7138C25.0013 43.1151 26.4431 43.5423 27.5309 44.2328C27.6992 44.3407 27.8546 44.4744 27.9625 44.6643C28.0705 44.8542 28.1093 45.1088 28.0661 45.3203C27.9798 45.7432 27.7165 45.9676 27.4488 46.1704C26.9136 46.576 26.1797 46.9126 25.4416 47.2708C24.7034 47.629 23.9609 47.9915 23.594 48.2935C23.4084 48.4446 23.3436 48.5784 23.3436 48.5697C23.348 48.5611 23.2962 48.4532 23.3825 48.5438C23.6156 48.7812 24.3365 49.1868 25.256 49.5536C26.1754 49.9204 27.3021 50.2873 28.4417 50.6541C29.5813 51.0209 30.7339 51.3877 31.7051 51.7674C32.6807 52.1472 33.475 52.501 34.0016 53.0275C34.2606 53.2951 34.4462 53.6317 34.4851 53.9726C34.524 54.3135 34.4333 54.6328 34.3038 54.9047C34.0448 55.4441 33.6261 55.8541 33.2419 56.2554C32.8577 56.6524 32.5124 57.0365 32.3872 57.2911C32.3267 57.4206 32.3138 57.5026 32.3224 57.5543C32.3267 57.6061 32.3354 57.6579 32.4519 57.7787L32.4649 57.7917C32.9656 58.3225 34.0534 58.3958 35.2837 58.685C35.8967 58.8274 36.5399 59.0475 37.0924 59.5222C37.6449 60.0012 38.0593 60.7261 38.232 61.7101C38.3054 62.1286 38.5255 62.3315 39.0565 62.4955C39.5875 62.6594 40.3947 62.6896 41.2839 62.5602C43.0624 62.3013 45.169 61.4296 46.3863 60.4241C46.4597 60.3593 46.4424 60.3766 46.464 60.3464C46.382 60.286 46.192 60.1651 45.8726 60.0055C45.4971 59.8199 45.0567 59.643 44.72 59.2201C44.5517 59.0086 44.4351 58.672 44.4826 58.3397C44.5301 58.0118 44.7114 57.7356 44.9531 57.4896C46.9432 55.4743 48.9073 54.9953 50.3836 54.6069C51.1217 54.4128 51.739 54.2315 52.2052 53.9381C52.6714 53.6446 53.0384 53.239 53.3448 52.4579C53.3794 52.3716 53.3794 52.35 53.3319 52.2464C53.2844 52.1472 53.1635 51.9875 52.965 51.8149C52.5722 51.4697 51.9117 51.1029 51.2599 50.7404C50.608 50.3779 49.9778 50.0413 49.5159 49.6141C49.2871 49.3983 49.0454 49.1307 49.0195 48.7208C48.9936 48.3108 49.2612 47.944 49.572 47.7239C50.7246 46.9126 52.4642 46.2955 54.3593 45.6396C56.25 44.9837 58.2875 44.3061 59.9451 43.5294C61.6027 42.7526 62.82 41.8593 63.2085 40.9617C63.4028 40.5129 63.4373 40.0555 63.2344 39.4686C63.0316 38.8817 62.5654 38.161 61.7409 37.3325L43.8567 19.018L43.8437 19.0051C42.8552 18.0773 41.5429 17.6155 40.2522 17.6155V17.6155ZM59.5264 51.1719C58.4213 51.2107 57.4026 51.7156 56.9709 52.5097C57.0961 52.5571 57.204 52.6089 57.4026 52.6521C57.981 52.7859 58.7839 52.8722 59.5782 52.8894C60.3725 52.9067 61.1667 52.842 61.6502 52.7039C61.8617 52.6434 61.974 52.5873 62.0301 52.5485C61.9222 52.0911 61.6675 51.7674 61.2315 51.5258C60.7782 51.2755 60.1566 51.146 59.5264 51.1719V51.1719ZM29.9439 54.9694C29.0676 54.909 27.9669 55.2586 27.4273 55.6901C27.1596 55.9059 27.0431 56.1087 27.0344 56.2425C27.0258 56.3762 27.069 56.5532 27.4273 56.8596V56.8725C27.9971 57.3645 28.6359 57.3127 29.3698 56.9114C29.9828 56.5748 30.5267 55.9447 30.8893 55.2845C30.6087 55.0989 30.2806 54.991 29.9439 54.9694V54.9694ZM55.5377 55.2327C55.3478 55.47 55.2485 55.6944 55.2356 55.8498C55.2183 56.0655 55.2787 56.2295 55.4471 56.3892C55.7579 56.6826 56.427 56.8078 57.1133 56.441C57.0918 56.3115 57.0443 56.1907 56.9709 56.0871C56.7594 55.7764 56.2673 55.4441 55.5377 55.2327Z" stroke="url(#paint14_radial)" stroke-width="0.0434886"/>
<g opacity="0.325">
<path opacity="0.325" d="M30.7728 45.3245C29.7282 45.6309 26.3482 46.9083 26.8274 47.8835C27.2892 48.82 35.1457 49.1954 36.3544 51.9788C36.881 53.1915 35.1457 54.1106 35.586 55.3578C35.9227 56.3201 38.5386 58.7367 40.1919 59.876C41.4912 60.7736 43.192 59.1553 42.5014 57.8132C41.3963 55.6771 46.2785 53.062 48.493 51.8753C49.7837 51.1805 45.8296 47.78 45.8296 47.78L30.7728 45.3245Z" fill="url(#paint15_linear)"/>
</g>
<path d="M31.1612 46.2696C32.0979 46.9557 33.9455 46.5414 35.0549 47.042C37.7183 48.2417 40.9947 49.5795 40.3904 47.2103L39.7126 47.7713L39.6997 46.6968L38.1241 47.0809C38.1241 47.0809 36.9025 46.1013 36.3456 45.7776C36.229 45.7086 35.629 46.3214 35.629 46.3214L35.5211 45.674C34.7786 45.5964 34.0362 45.5575 33.2894 45.5618C31.6663 45.5791 30.5655 45.8337 31.1612 46.2696Z" fill="url(#paint16_linear)"/>
<g opacity="0.478">
<path opacity="0.478" d="M48.6483 48.4489C48.2857 49.7737 53.0773 51.5775 52.719 52.4924C51.929 54.5076 47.6037 53.1353 44.2928 57.3558C43.8179 57.9599 44.9575 60.1219 44.8065 59.863C44.6511 59.6084 43.4812 57.8218 43.7834 56.9458C44.7244 54.1926 53.8241 53.1656 52.1578 51.8494C51.1995 51.0985 47.7548 49.0099 48.6483 48.4489Z" fill="url(#paint17_radial)"/>
</g>
<path opacity="0.586" d="M59.4315 51.1761C59.4315 51.297 59.1984 51.3919 58.9049 51.3919C58.6113 51.3919 58.3782 51.2927 58.3782 51.1718C58.3782 51.051 58.6113 50.9561 58.9049 50.9561C59.1984 50.9561 59.4315 51.0553 59.4315 51.1761ZM55.9263 55.1938C55.9263 55.3146 55.7752 55.4095 55.5939 55.4095C55.4083 55.4095 55.2615 55.3103 55.2615 55.1894C55.2615 55.0686 55.4126 54.9737 55.5939 54.9737C55.7752 54.978 55.9263 55.0729 55.9263 55.1938ZM29.3656 55.0039C29.3656 55.1247 29.1022 55.2196 28.7785 55.2196C28.4547 55.2196 28.1914 55.1204 28.1914 55.0039C28.1914 54.883 28.4547 54.7881 28.7785 54.7881C29.1022 54.7881 29.3656 54.883 29.3656 55.0039Z" fill="black"/>
<path opacity="0.251" d="M29.0331 45.428C26.033 47.2837 21.3666 47.9568 26.4733 49.191C25.8646 47.836 27.7899 47.9871 29.0331 45.428Z" fill="black"/>
<path d="M39.6868 62.3228C39.6868 62.3228 44.3143 61.8869 45.3849 60.5535C46.0108 59.7724 42.8941 58.8618 43.5675 58.0937C46.0971 55.2153 48.2253 55.3362 51.1563 54.1279C54.0917 52.9239 53.0082 52.3327 52.0585 51.8019C50.4354 50.8956 46.818 49.929 48.0138 47.7799C49.2181 45.6136 59.7639 42.6101 59.7639 42.6101C62.9582 41.5183 62.5568 39.5462 60.9941 37.8977L51.5707 28.5291C51.5707 28.5291 52.0369 37.4144 50.1376 41.2292C47.785 45.9373 35.2751 51.1934 40.507 51.776C42.3502 51.9788 43.2351 52.6088 43.9906 54.0286C45.5403 56.9501 39.6868 62.3228 39.6868 62.3228Z" fill="url(#paint18_linear)"/>
<defs>
<linearGradient id="paint0_linear" x1="55.5375" y1="30.1942" x2="46.3814" y2="38.4783" gradientUnits="userSpaceOnUse">
<stop stop-color="#C0CDF9"/>
<stop offset="1" stop-color="#07092D" stop-opacity="0.288"/>
</linearGradient>
<linearGradient id="paint1_linear" x1="28.4612" y1="26.9798" x2="39.0042" y2="37.5293" gradientUnits="userSpaceOnUse">
<stop stop-color="white"/>
<stop offset="1" stop-color="white" stop-opacity="0"/>
</linearGradient>
<linearGradient id="paint2_linear" x1="35.483" y1="25.0551" x2="48.0192" y2="37.5991" gradientUnits="userSpaceOnUse">
<stop stop-color="white"/>
<stop offset="1" stop-color="white" stop-opacity="0"/>
</linearGradient>
<radialGradient id="paint3_radial" cx="0" cy="0" r="1" gradientUnits="userSpaceOnUse" gradientTransform="translate(38.1602 61.4409) scale(13.5757 9.08137)">
<stop stop-color="white"/>
<stop offset="1" stop-color="white" stop-opacity="0"/>
</radialGradient>
<radialGradient id="paint4_radial" cx="0" cy="0" r="1" gradientUnits="userSpaceOnUse" gradientTransform="translate(57.0621 45.8386) scale(7.58518 3.20922)">
<stop stop-color="white"/>
<stop offset="1" stop-color="white" stop-opacity="0"/>
</radialGradient>
<linearGradient id="paint5_linear" x1="59.5492" y1="50.3232" x2="59.5492" y2="52.4446" gradientUnits="userSpaceOnUse">
<stop stop-color="white"/>
<stop offset="1" stop-color="white" stop-opacity="0"/>
</linearGradient>
<radialGradient id="paint6_radial" cx="0" cy="0" r="1" gradientUnits="userSpaceOnUse" gradientTransform="translate(59.4442 52.8592) scale(3.12111 0.460868)">
<stop stop-color="white"/>
<stop offset="1" stop-color="white" stop-opacity="0"/>
</radialGradient>
<linearGradient id="paint7_linear" x1="55.3789" y1="54.7273" x2="56.0664" y2="55.9425" gradientUnits="userSpaceOnUse">
<stop stop-color="white"/>
<stop offset="1" stop-color="white" stop-opacity="0"/>
</linearGradient>
<linearGradient id="paint8_linear" x1="55.1017" y1="54.2971" x2="56.0608" y2="56.1893" gradientUnits="userSpaceOnUse">
<stop stop-color="white"/>
<stop offset="1" stop-color="white" stop-opacity="0"/>
</linearGradient>
<radialGradient id="paint9_radial" cx="0" cy="0" r="1" gradientUnits="userSpaceOnUse" gradientTransform="translate(56.4162 56.8555) rotate(-26.8778) scale(1.3495 0.46094)">
<stop stop-color="white"/>
<stop offset="1" stop-color="white" stop-opacity="0"/>
</radialGradient>
<radialGradient id="paint10_radial" cx="0" cy="0" r="1" gradientUnits="userSpaceOnUse" gradientTransform="translate(28.7006 50.2236) scale(5.03833 2.04969)">
<stop stop-color="white" stop-opacity="0.33"/>
<stop offset="1" stop-color="white" stop-opacity="0"/>
</radialGradient>
<linearGradient id="paint11_linear" x1="28.6149" y1="54.5159" x2="28.85" y2="55.5102" gradientUnits="userSpaceOnUse">
<stop stop-color="white"/>
<stop offset="1" stop-color="white" stop-opacity="0"/>
</linearGradient>
<linearGradient id="paint12_linear" x1="28.5863" y1="54.3927" x2="28.9182" y2="55.9051" gradientUnits="userSpaceOnUse">
<stop stop-color="white"/>
<stop offset="1" stop-color="white" stop-opacity="0"/>
</linearGradient>
<radialGradient id="paint13_radial" cx="0" cy="0" r="1" gradientUnits="userSpaceOnUse" gradientTransform="translate(28.8367 57.405) rotate(-15.482) scale(2.85111 1.06612)">
<stop stop-color="white"/>
<stop offset="1" stop-color="white" stop-opacity="0"/>
</radialGradient>
<radialGradient id="paint14_radial" cx="0" cy="0" r="1" gradientUnits="userSpaceOnUse" gradientTransform="translate(42.3452 22.5158) scale(39.4489 38.8023)">
<stop stop-color="white"/>
<stop offset="1" stop-color="white" stop-opacity="0"/>
</radialGradient>
<linearGradient id="paint15_linear" x1="31.2918" y1="50.7801" x2="43.1331" y2="53.9131" gradientUnits="userSpaceOnUse">
<stop stop-color="white"/>
<stop offset="1" stop-color="white" stop-opacity="0"/>
</linearGradient>
<linearGradient id="paint16_linear" x1="36.481" y1="45.2548" x2="35.1523" y2="48.3013" gradientUnits="userSpaceOnUse">
<stop stop-color="#EEEEEC"/>
<stop offset="1" stop-color="#EEEEEC" stop-opacity="0"/>
</linearGradient>
<radialGradient id="paint17_radial" cx="0" cy="0" r="1" gradientUnits="userSpaceOnUse" gradientTransform="translate(48.3367 54.0393) scale(6.19941 7.87364)">
<stop stop-color="white"/>
<stop offset="1" stop-color="white" stop-opacity="0"/>
</radialGradient>
<linearGradient id="paint18_linear" x1="51.7685" y1="53.3403" x2="46.2389" y2="38.4425" gradientUnits="userSpaceOnUse">
<stop stop-color="#729FCF"/>
<stop offset="1" stop-color="#729FCF" stop-opacity="0"/>
</linearGradient>
</defs>
</svg>
