<svg width="80" height="80" viewBox="0 0 80 80" fill="none" xmlns="http://www.w3.org/2000/svg">
<path fill-rule="evenodd" clip-rule="evenodd" d="M21.8982 48.2414L19.2175 49.2207L19.0736 57.1955L28.3533 53.8056C25.1704 52.7364 22.8462 50.8554 21.8982 48.2414" fill="#FDBD39"/>
<path fill-rule="evenodd" clip-rule="evenodd" d="M23.3011 39.8066L14 43.2044L19.2175 49.2206L21.8982 48.2414C20.9531 45.635 21.536 42.6888 23.3011 39.8066" fill="#F69833"/>
<path fill-rule="evenodd" clip-rule="evenodd" d="M38.9533 28.2993C27.1092 32.6261 19.4734 41.5544 21.8983 48.2413L64.7896 32.5726C62.3647 25.8857 50.7974 23.9725 38.9533 28.2993Z" fill="#FECF33"/>
<path fill-rule="evenodd" clip-rule="evenodd" d="M47.7346 52.5147C59.5787 48.1879 67.2289 39.2991 64.7896 32.5726L21.8983 48.2414C24.3375 54.9679 35.8905 56.8415 47.7346 52.5147Z" fill="#EE6723"/>
<path fill-rule="evenodd" clip-rule="evenodd" d="M64.7896 32.5726L21.8983 48.2414C22.7382 50.5574 25.941 51.6984 30.4348 51.6984C34.8159 51.6984 40.4242 50.6147 46.271 48.4788C58.1152 44.152 66.4483 37.1466 64.7896 32.5726" fill="#F69833"/>
<path fill-rule="evenodd" clip-rule="evenodd" d="M56.2531 29.1155C51.8719 29.1155 46.2637 30.1993 40.4168 32.3352C28.5727 36.662 20.2395 43.6674 21.8982 48.2414L64.7895 32.5726C63.9497 30.2566 60.7469 29.1155 56.2531 29.1155" fill="#FDBD39"/>
<path fill-rule="evenodd" clip-rule="evenodd" d="M53.8843 57.6178H53.884C52.622 57.6178 50.7603 56.4779 48.3504 54.2299C45.4994 51.5702 42.2335 47.6747 39.1543 43.2609C36.0752 38.8473 33.5451 34.4347 32.03 30.836C30.3793 26.9143 30.1439 24.5029 31.3305 23.6689C31.5906 23.4862 31.9042 23.3937 32.2625 23.3937C33.2277 23.3937 35.1082 24.1122 38.5857 27.5357L38.6617 27.6105L38.6514 27.7169C38.6277 27.9628 38.6057 28.211 38.5862 28.4545L38.5474 28.9381L38.2063 28.5944C34.4594 24.8196 32.8101 24.4121 32.2748 24.4121C32.1222 24.4121 32.0006 24.4432 31.9135 24.5044C31.3988 24.8661 31.3657 26.6372 32.966 30.4389C34.4541 33.9736 36.9474 38.3194 39.9867 42.6758C43.0262 47.0327 46.2421 50.8706 49.0421 53.4827C52.0616 56.2994 53.4222 56.6035 53.8671 56.6035C54.0207 56.6035 54.1455 56.5705 54.2381 56.5054C54.781 56.124 54.7817 54.2265 52.997 50.1346L52.915 49.9468L53.0944 49.8486C53.2738 49.7504 53.4472 49.6537 53.6099 49.5612L53.8248 49.4391L53.9238 49.6661C55.1893 52.5655 56.3722 56.2506 54.8211 57.341C54.5596 57.5247 54.2444 57.6178 53.8843 57.6178V57.6178ZM53.884 57.1706H53.8843L53.8841 57.3942L53.884 57.1706Z" fill="#EE6723"/>
<path fill-rule="evenodd" clip-rule="evenodd" d="M48.022 52.3924L48.0039 52.6153C47.7045 56.3204 46.9161 60.7748 44.8604 60.9551C44.819 60.9588 44.7761 60.9607 44.7332 60.9607C43.3368 60.9607 42.0156 58.9599 40.8064 55.0136C39.6624 51.2803 38.7747 46.2677 38.3068 40.8992C37.8388 35.5319 37.8458 30.4407 38.3265 26.5637C38.8504 22.3389 39.8479 20.1326 41.2911 20.006C41.3337 20.002 41.378 20 41.4216 20C42.4347 20 43.9615 21.1471 45.5245 26.4902L44.5039 26.6871C43.9821 24.9016 43.4133 23.4494 42.8487 22.4516C42.3265 21.5286 41.8186 21.0203 41.4187 21.0203C41.4056 21.0203 41.3924 21.0208 41.3793 21.022C40.7538 21.0769 39.8428 22.5942 39.3349 26.6897C38.8628 30.4971 38.8571 35.512 39.3189 40.8104C39.781 46.1097 40.6542 51.0474 41.7777 54.7139C42.2808 56.356 42.8327 57.7093 43.3737 58.6276C43.8725 59.4745 44.3552 59.9408 44.7329 59.9408C44.7459 59.9408 44.7589 59.9402 44.7718 59.9392C45.3703 59.8867 46.4982 58.3077 46.9729 52.7524L48.022 52.3924" fill="#EE6723"/>
</svg>
