<svg width="80" height="80" viewBox="0 0 80 80" fill="none" xmlns="http://www.w3.org/2000/svg">
<rect x="4" y="4" width="71" height="71" rx="34.9503" fill="url(#paint0_linear)"/>
<path d="M40.8988 45.3457C40.8988 46.3724 41.2147 47.103 41.8466 47.5374C42.5179 47.9718 43.4459 48.189 44.6306 48.189C45.223 48.189 45.8351 48.1495 46.467 48.0705C47.0988 47.952 47.6517 47.8138 48.1256 47.6559C48.481 48.0902 48.7772 48.5839 49.0141 49.1367C49.2905 49.6501 49.4288 50.282 49.4288 51.0323C49.4288 52.5329 48.8561 53.7572 47.7109 54.7049C46.6052 55.6527 44.6306 56.1266 41.7873 56.1266C38.3121 56.1266 35.6268 55.3368 33.7312 53.7572C31.8752 52.1775 30.9471 49.6106 30.9471 46.0565V20.7035C31.3815 20.585 31.9936 20.4666 32.7835 20.3481C33.6128 20.1901 34.4816 20.1112 35.3898 20.1112C37.1274 20.1112 38.4701 20.4271 39.4179 21.0589C40.4051 21.6513 40.8988 22.9347 40.8988 24.9093V28.7004H48.6587C48.8956 29.1348 49.1128 29.6876 49.3103 30.359C49.5472 30.9908 49.6657 31.7016 49.6657 32.4915C49.6657 33.8736 49.3498 34.8806 48.7179 35.5125C48.1256 36.1048 47.316 36.401 46.2892 36.401H40.8988V45.3457Z" fill="white"/>
<rect x="29.0845" y="20.0952" width="9.61977" height="9.19537" fill="#8F54FE"/>
<path d="M25.512 32.8642L39.5689 19.8578C40.1123 19.3549 40.9941 19.7404 40.9941 20.4808V33.4872C40.9941 33.956 40.6141 34.336 40.1453 34.336H26.0884C25.3162 34.336 24.9452 33.3886 25.512 32.8642Z" fill="white"/>
<defs>
<linearGradient id="paint0_linear" x1="-25.1733" y1="-27.9851" x2="130.738" y2="32.1092" gradientUnits="userSpaceOnUse">
<stop offset="0.36007" stop-color="#914EFF"/>
<stop offset="0.574705" stop-color="#7B8AF1"/>
<stop offset="1" stop-color="#01D1FF"/>
</linearGradient>
</defs>
</svg>
