<svg width="80" height="80" viewBox="0 0 80 80" fill="none" xmlns="http://www.w3.org/2000/svg">
<path d="M19 18H61V60H19V18Z" fill="#FF3366"/>
<path d="M51.5553 50.4905H54.7954V53.7306H51.5553V50.4905ZM46.4497 49.2821C46.4497 45.5835 37.9893 48.4911 37.9893 42.4186C37.9893 40.0027 40.035 37.9281 43.402 37.9281C46.9607 37.9281 48.8367 40.1095 48.9005 42.9533H46.3648C46.3438 41.4561 45.3419 40.2591 43.4029 40.2591C41.6345 40.2591 40.5478 41.0072 40.5478 42.3547C40.5478 45.6903 49.072 43.1029 49.072 49.1754C49.072 51.9334 46.685 53.7298 43.0625 53.7298C39.0349 53.7298 37.4792 51.1643 37.3943 48.6836H39.9519C40.0587 50.3094 41.1454 51.3996 43.1912 51.3996C45.2562 51.3996 46.4497 50.6506 46.4497 49.2821" fill="white"/>
</svg>
